/vscmnt/brussel_pixiu_data/_data_brussel/112/vsc11236/PredSimResults/SUBJ07mtu3D/worker10.mot
version=1
nRows=8
nColumns=50
inDegrees=yes
endheader
                time	         pelvis_tilt	         pelvis_list	     pelvis_rotation	           pelvis_tx	           pelvis_ty	           pelvis_tz	       hip_flexion_r	     hip_adduction_r	      hip_rotation_r	        knee_angle_r	       ankle_angle_r	         mtp_angle_r	       hip_flexion_l	     hip_adduction_l	      hip_rotation_l	        knee_angle_l	       ankle_angle_l	         mtp_angle_l	    lumbar_extension	      lumbar_bending	     lumbar_rotation	 ercspn_r/activation	 intobl_r/activation	 extobl_r/activation	    abd_r/activation	    add_r/activation	hamstrings_r/activation	bifemsh_r/activation	glut_max_r/activation	iliopsoas_r/activation	rect_fem_r/activation	  vasti_r/activation	gastroc_r/activation	 soleus_r/activation	tib_ant_r/activation	 ercspn_l/activation	 intobl_l/activation	 extobl_l/activation	    abd_l/activation	    add_l/activation	hamstrings_l/activation	bifemsh_l/activation	glut_max_l/activation	iliopsoas_l/activation	rect_fem_l/activation	  vasti_l/activation	gastroc_l/activation	 soleus_l/activation	tib_ant_l/activation	
          0.00000000	         -4.68603756	          0.35162932	          7.31568877	          0.00000000	          0.85036478	         -0.01206225	         30.59057564	         -2.05733891	         -3.06594836	         -7.04969307	          4.31395068	          0.26742055	        -13.47724314	          1.29060605	          3.92683507	         -8.55701385	          8.49493791	         26.25577688	         -8.43711760	         -2.18188770	         -2.07285706	          0.11912372	          0.15547409	          0.01000013	          0.02854444	          0.12154858	          0.04406431	          0.04377055	          0.07469115	          0.01459346	          0.01180386	          0.01000257	          0.01000005	          0.01000001	          0.36287574	          0.12111684	          0.01000002	          0.01000004	          0.03866752	          0.01000005	          0.01055246	          0.13303270	          0.01393295	          0.16177686	          0.01180367	          0.01000008	          0.10483059	          0.27367869	          0.02026200	
          0.01082220	         -4.69439085	          0.40570441	          7.31278665	          0.01541600	          0.84897399	         -0.01204102	         30.20706837	         -1.86207759	         -2.66281131	         -8.16929554	          4.05560462	          0.25158513	        -13.88244758	          1.27756875	          3.60322956	         -9.68349930	          7.61860044	         27.88148683	         -8.30419374	         -1.77149362	         -2.28767925	          0.10092069	          0.13171648	          0.01000008	          0.02418268	          0.10309083	          0.04752385	          0.06723867	          0.12199153	          0.01236349	          0.01000026	          0.01000014	          0.01941247	          0.01461436	          0.37797804	          0.13932927	          0.01000003	          0.01000024	          0.03275881	          0.01415823	          0.01384848	          0.11270428	          0.01180397	          0.13705610	          0.01000020	          0.01000012	          0.08881165	          0.25489983	          0.01716580	
          0.02164440	         -4.69861257	          0.44580407	          7.26425708	          0.03096347	          0.84778224	         -0.01195077	         29.77742990	         -1.71123678	         -2.27342238	         -9.28231691	          3.74489743	          0.24916580	        -14.14878917	          1.26086479	          3.24377154	        -11.06690791	          6.63338132	         29.46290187	         -8.16057699	         -1.34017369	         -2.49184729	          0.13068155	          0.11158917	          0.01000006	          0.10391284	          0.11448808	          0.04529195	          0.07962856	          0.13025389	          0.01047431	          0.01000005	          0.01000000	          0.01644611	          0.01238117	          0.42168838	          0.15108364	          0.01000001	          0.01000007	          0.02775301	          0.01199476	          0.01173277	          0.09548221	          0.01000027	          0.11611289	          0.01000077	          0.01000006	          0.07524052	          0.22730726	          0.01454273	
          0.03246660	         -4.70025220	          0.49437257	          7.17222878	          0.04646147	          0.84695310	         -0.01176538	         29.37580627	         -1.57278654	         -1.96299957	        -10.40969786	          3.35758763	          0.23057760	        -14.19613059	          1.26452186	          2.85733987	        -12.82108185	          5.51287477	         30.94638307	         -8.02725630	         -0.91732668	         -2.68281255	          0.13342935	          0.09453746	          0.01000006	          0.14730300	          0.13745840	          0.04179667	          0.06746079	          0.14779619	          0.01000007	          0.01000014	          0.01327773	          0.01393304	          0.01048927	          0.43944670	          0.18748455	          0.01000002	          0.01000006	          0.02351213	          0.01115532	          0.01221772	          0.08089180	          0.01000016	          0.09836994	          0.01000049	          0.01000023	          0.06374317	          0.19257292	          0.01232049	
          0.04328880	         -4.69943914	          0.54338375	          7.04455914	          0.06179096	          0.84660253	         -0.01148410	         29.04642762	         -1.43040408	         -1.70508844	        -11.67494996	          3.15019175	          0.21454098	        -13.95583591	          1.27866269	          2.44688325	        -15.04595544	          4.27219656	         32.20067387	         -7.91144016	         -0.49830200	         -2.86248928	          0.14169228	          0.08009139	          0.01000006	          0.17965118	          0.15606796	          0.04282731	          0.05715236	          0.16346032	          0.01000010	          0.01000011	          0.03537613	          0.01180400	          0.01000008	          0.44734549	          0.21380365	          0.01000002	          0.01000006	          0.01991929	          0.03368664	          0.01343407	          0.06853093	          0.01000006	          0.08333826	          0.01000026	          0.01000008	          0.05400271	          0.16314624	          0.01043783	
          0.05411100	         -4.69733998	          0.59466873	          6.88334187	          0.07687941	          0.84682750	         -0.01112183	         28.74552882	         -1.28687321	         -1.49415872	        -12.97989652	          3.09562917	          0.19758735	        -13.36726517	          1.30529843	          2.00139846	        -17.82766642	          2.92172270	         33.03377377	         -7.81479826	         -0.08746376	         -3.02862935	          0.14108917	          0.06785279	          0.01000005	          0.19870602	          0.17088699	          0.04371371	          0.04841917	          0.16640527	          0.01000009	          0.01000011	          0.06759006	          0.01000039	          0.01000013	          0.44002266	          0.23283492	          0.01000002	          0.01000006	          0.01687546	          0.05796982	          0.01141338	          0.05805890	          0.01000002	          0.07060353	          0.01000016	          0.01000003	          0.04575067	          0.13821620	          0.01000001	
          0.06493319	         -4.69549860	          0.64970308	          6.68911582	          0.09169333	          0.84767935	         -0.01069481	         28.39226401	         -1.14213429	         -1.31745346	        -14.16931099	          3.17960812	          0.18385055	        -12.38768464	          1.34117406	          1.51654041	        -21.21373092	          1.43325371	         33.26810368	         -7.73569759	          0.31190077	         -3.17773136	          0.13392561	          0.05748435	          0.01000005	          0.20225655	          0.17716648	          0.04635772	          0.04102053	          0.16208686	          0.01000009	          0.01000011	          0.09162818	          0.01000144	          0.01000298	          0.42390532	          0.23781242	          0.01000002	          0.01000007	          0.01429676	          0.07617779	          0.01000858	          0.04918708	          0.01000002	          0.05981477	          0.01000013	          0.01000002	          0.03875960	          0.11709566	          0.01000000	
          0.07575539	         -4.69527933	          0.70666730	          6.46300754	          0.10622597	          0.84912210	         -0.01021282	         27.92330433	         -0.99252938	         -1.15477190	        -15.11953794	          3.36420132	          0.17570375	        -11.00657090	          1.37578689	          1.00974754	        -25.16498912	         -0.34049032	         32.89946452	         -7.67171525	          0.69970950	         -3.30715221	          0.11346080	          0.04870028	          0.01000004	          0.19954355	          0.17682388	          0.05446210	          0.03475250	          0.14266209	          0.01000007	          0.01000012	          0.11793534	          0.01000010	          0.01000004	          0.40593288	          0.24047831	          0.01000001	          0.01000005	          0.01211210	          0.08955739	          0.01000113	          0.04167095	          0.01000000	          0.05067461	          0.01000009	          0.01000000	          0.03283683	          0.09920250	          0.01000082	
